<svg xmlns="http://www.w3.org/2000/svg" width="200" height="40" fill="none" viewBox="0 0 200 40" class="UserLogo variant-- "><path fill="var(--userLogoColor, #003D29)" d="M85.027 20.795l-1.825-.168c-1.197-.104-1.68-.524-1.68-1.259 0-.86.735-1.427 2.162-1.427 1.343 0 2.015.587 2.12 1.532h4.281c-.273-2.791-2.245-4.764-6.275-4.764-4.197 0-6.507 2.14-6.507 4.973 0 2.645 1.448 4.093 5.038 4.388l1.806.146c1.404.106 1.909.588 1.909 1.427 0 .882-.734 1.533-2.246 1.533-1.407 0-2.245-.63-2.392-1.742h-4.513c.398 3.043 2.54 5.057 6.884 5.057 4.219 0 6.548-2.16 6.548-5.079 0-2.833-1.553-4.28-5.31-4.617zm-14.775-6.086c-2.686 0-4.282 1.406-5.037 4.282h-.273v-4.03h-4.24v15.28h4.513v-8.9c0-2.036 1.05-3.148 2.938-3.148 1.868 0 2.792 1.155 2.792 3.127v8.92h4.511v-9.717c0-3.694-1.93-5.814-5.205-5.814zM56.316 9c-1.532 0-2.687 1.008-2.687 2.54s1.134 2.54 2.666 2.54 2.665-1.009 2.665-2.54c0-1.512-1.133-2.54-2.644-2.54zm2.245 5.96H54.05v15.28h4.512V14.96zm38.87-3.232h-2.875c-.084 2.456-1.134 3.526-3.485 3.715v3.107h1.848v6.716c0 3.379 1.93 5.225 5.771 5.225.722 0 1.442-.091 2.141-.272v-3.632a6.21 6.21 0 01-1.09.083c-1.617 0-2.31-.608-2.31-2.308V18.55h3.967v-3.59h-3.967v-3.232zM169 18.55v-3.59h-3.966v-3.232H162.2c-.063 1.7-.567 2.687-1.679 3.233v10.305c0 3.379 1.931 5.225 5.772 5.225.722 0 1.441-.091 2.141-.272v-3.632c-.361.06-.726.088-1.092.083-1.616 0-2.308-.608-2.308-2.308V18.55H169zm-14.775.671h-.273V14.96h-4.177v15.28h4.513v-8.27c0-2.288 1.028-3.253 3.379-3.253.399 0 .839.043 1.448.147v-3.945a3.725 3.725 0 00-1.28-.21c-1.827 0-3.086 1.05-3.61 4.512zm-28.817 7.41c-2.12 0-3.652-1.408-3.652-4.136 0-2.434 1.427-3.945 3.61-3.945 1.868 0 2.938 1.049 3.253 2.728h4.575c-.44-3.925-3.252-6.57-7.765-6.57-4.953 0-8.206 3.359-8.206 7.956 0 4.764 3.127 7.827 8.143 7.827 4.555 0 7.514-2.538 7.934-6.653h-4.576c-.251 1.68-1.406 2.792-3.316 2.792zm-16.181-11.922c-3.925 0-6.296 1.93-6.717 5.393h4.324c.146-1.196.924-1.825 2.287-1.825 1.385 0 2.015.63 2.015 1.532 0 .755-.482 1.155-1.72 1.385l-2.058.378c-3.63.671-5.016 2.161-5.016 4.533 0 2.707 1.91 4.408 4.555 4.408 2.161 0 3.568-1.008 4.219-3.526h.272v3.253h4.261v-9.97c0-3.463-2.078-5.561-6.422-5.561zm-.504 12.719c-1.217 0-1.91-.651-1.91-1.617 0-.797.483-1.343 1.679-1.616l.839-.189c.724-.167 1.286-.391 1.806-.84v1.617c0 1.867-.987 2.645-2.414 2.645zm32.573-12.72c-3.925 0-6.296 1.932-6.716 5.394h4.323c.148-1.196.924-1.825 2.288-1.825 1.385 0 2.015.63 2.015 1.532 0 .755-.483 1.155-1.721 1.385l-2.057.378c-3.631.671-5.017 2.161-5.017 4.533 0 2.707 1.91 4.408 4.555 4.408 2.162 0 3.568-1.008 4.219-3.526h.273v3.253h4.261v-9.97c0-3.463-2.079-5.561-6.423-5.561zm-.504 12.72c-1.217 0-1.91-.651-1.91-1.617 0-.797.483-1.343 1.679-1.616l.839-.189c.724-.167 1.287-.391 1.806-.84v1.617c0 1.867-.986 2.645-2.414 2.645z"></path><path fill="var(--userLogoColor, #0AAD0A)" d="M46.453 12.656c-.928 0-1.59.404-2.2 1.282l-1.76 2.527V9.252h-4.197v7.213l-1.76-2.527c-.609-.878-1.27-1.282-2.199-1.282-1.4 0-2.332 1.034-2.337 2.307-.004 1.091.51 1.802 1.595 2.5l6.8 4.381 6.8-4.38c1.084-.699 1.599-1.41 1.595-2.5-.004-1.274-.937-2.308-2.337-2.308z"></path><path fill="var(--userLogoColor, #FF7009)" d="M40.395 22.894c4.041 0 7.355 3.017 7.345 7.346H33.05c-.009-4.328 3.303-7.346 7.345-7.346z"></path><title>Instacart logo</title></svg>