<svg xmlns="http://www.w3.org/2000/svg" width="200" height="40" viewBox="0 0 200 40" class="UserLogo variant-- "><title>Slack logo</title><g fill="none" fill-rule="evenodd"><path fill="var(--userLogoColor, #000)" fill-rule="nonzero" d="M80.95 28.15l1.32-3.06a8.8 8.8 0 0 0 5.2 1.62c1.38 0 2.25-.53 2.25-1.34-.02-2.26-8.28-.49-8.34-6.15-.03-2.87 2.53-5.08 6.15-5.08 2.15 0 4.3.53 5.83 1.75L92.12 19a9.32 9.32 0 0 0-4.8-1.53c-1.13 0-1.88.53-1.88 1.21.02 2.21 8.34 1 8.43 6.4 0 2.94-2.49 5-6.07 5-2.61 0-5.02-.62-6.85-1.94M131.59 24a3.8 3.8 0 1 1 0-3.74l3.64-2.02a7.98 7.98 0 1 0 0 7.78l-3.64-2.02zM95.7 7.53h4.55v22.26H95.7zM137.01 7.53V29.8h4.56v-6.68l5.4 6.68h5.84l-6.88-7.93 6.37-7.4h-5.58l-5.15 6.15V7.53zM113.8 24.03a4.2 4.2 0 0 1-3.56 1.9 3.8 3.8 0 1 1 0-7.62c1.53 0 2.9.85 3.55 1.96v3.76zm0-9.57v1.8c-.75-1.25-2.6-2.12-4.54-2.12-4 0-7.15 3.53-7.15 7.95 0 4.43 3.15 8 7.15 8 1.94 0 3.79-.87 4.53-2.13v1.8h4.56v-15.3h-4.56z"></path><path fill="var(--userLogoColor, #E01E5A)" fill-rule="nonzero" d="M52.79 24a2.8 2.8 0 1 1-2.81-2.8h2.81V24zm1.4 0a2.8 2.8 0 1 1 5.62 0v7.02a2.8 2.8 0 1 1-5.62 0v-7.01z"></path><path fill="var(--userLogoColor, #36C5F0)" fill-rule="nonzero" d="M57 12.74a2.8 2.8 0 1 1 2.81-2.8v2.8h-2.8zm0 1.42a2.8 2.8 0 1 1 0 5.62h-7.04a2.8 2.8 0 1 1 0-5.62H57z"></path><path fill="var(--userLogoColor, #2EB67D)" fill-rule="nonzero" d="M68.26 16.97a2.8 2.8 0 1 1 2.81 2.8h-2.8v-2.8zm-1.4 0a2.8 2.8 0 1 1-5.62 0V9.93a2.8 2.8 0 1 1 5.62 0v7.04z"></path><path fill="var(--userLogoColor, #ECB22E)" fill-rule="nonzero" d="M64.05 28.22a2.8 2.8 0 1 1-2.81 2.8v-2.8h2.8zm0-1.4a2.8 2.8 0 1 1 0-5.62h7.04a2.8 2.8 0 1 1 0 5.61h-7.04z"></path></g></svg>