<svg xmlns="http://www.w3.org/2000/svg" width="200" height="40" viewBox="0 0 200 40" class="UserLogo variant-- "><title>Amazon logo</title><g fill="none" fill-rule="evenodd"><path fill="var(--userLogoColor, #EFA82E)" d="M111.58 33.91C106.18 37.9 98.37 40 91.64 40a36.13 36.13 0 0 1-24.37-9.28c-.5-.45-.05-1.08.56-.72a49.08 49.08 0 0 0 24.37 6.46c5.98 0 12.55-1.24 18.6-3.8.9-.39 1.67.6.78 1.25"></path><path fill="var(--userLogoColor, #EFA82E)" d="M113.82 31.36c-.69-.88-4.56-.42-6.3-.21-.52.06-.6-.4-.13-.73 3.09-2.17 8.15-1.54 8.73-.82.6.74-.15 5.8-3.04 8.21-.45.38-.87.18-.67-.31.65-1.63 2.1-5.26 1.41-6.14"></path><path fill="var(--userLogoColor, #1B1A19)" d="M107.65 15.13v-2.1c0-.33.24-.54.53-.54h9.45c.3 0 .54.22.54.53v1.8c0 .3-.26.7-.71 1.33l-4.9 6.97c1.82-.04 3.74.23 5.4 1.16.36.2.47.51.5.82v2.24c0 .31-.34.67-.7.48a10.89 10.89 0 0 0-9.98.02c-.33.17-.67-.18-.67-.49v-2.13c0-.34 0-.93.35-1.45l5.67-8.11h-4.94a.53.53 0 0 1-.54-.53M73.2 28.26h-2.88a.54.54 0 0 1-.5-.48V13.06c0-.3.24-.53.55-.53h2.67c.28.01.5.23.52.5v1.92h.06c.7-1.86 2-2.73 3.78-2.73 1.8 0 2.92.87 3.73 2.73a4.08 4.08 0 0 1 3.96-2.73c1.2 0 2.52.5 3.33 1.61.9 1.24.72 3.04.72 4.62v9.28c0 .3-.25.53-.55.53h-2.87a.54.54 0 0 1-.52-.52v-7.8c0-.63.06-2.18-.08-2.76-.22-1-.86-1.27-1.69-1.27-.7 0-1.42.46-1.72 1.2-.29.75-.26 1.99-.26 2.82v7.8c0 .3-.25.53-.56.53h-2.87a.54.54 0 0 1-.51-.52v-7.8c0-1.65.26-4.06-1.77-4.06-2.07 0-1.99 2.35-1.99 4.05v7.8c0 .3-.25.53-.55.53m53.11-13.03c-2.11 0-2.25 2.88-2.25 4.67 0 1.8-.02 5.64 2.23 5.64 2.22 0 2.33-3.1 2.33-4.99 0-1.24-.05-2.72-.43-3.9-.32-1.02-.96-1.42-1.88-1.42m-.02-3.01c4.26 0 6.57 3.66 6.57 8.3 0 4.5-2.55 8.05-6.57 8.05-4.19 0-6.46-3.65-6.46-8.2 0-4.59 2.3-8.15 6.46-8.15m12.1 16.04h-2.87a.54.54 0 0 1-.51-.52V13a.55.55 0 0 1 .55-.48h2.66c.25.01.46.18.51.41v2.25h.05c.81-2.01 1.94-2.97 3.92-2.97 1.29 0 2.55.47 3.35 1.74.75 1.17.75 3.16.75 4.58v9.26a.55.55 0 0 1-.55.46h-2.88a.54.54 0 0 1-.5-.46v-8c0-1.6.18-3.95-1.8-3.95-.7 0-1.35.46-1.67 1.17-.4.9-.46 1.8-.46 2.79v7.92c0 .3-.25.53-.55.53m-35.38-.03a.6.6 0 0 1-.68.06c-.96-.79-1.13-1.15-1.65-1.9-1.57 1.6-2.7 2.08-4.73 2.08-2.42 0-4.3-1.5-4.3-4.47a4.87 4.87 0 0 1 3.06-4.69c1.56-.68 3.74-.8 5.4-1v-.36c0-.69.06-1.5-.35-2.08-.35-.53-1.02-.75-1.61-.75-1.1 0-2.07.56-2.31 1.72-.05.26-.24.52-.5.53l-2.78-.3c-.24-.05-.5-.24-.43-.6.64-3.37 3.69-4.4 6.42-4.4 1.4 0 3.23.38 4.33 1.44 1.4 1.3 1.26 3.04 1.26 4.93v4.47c0 1.34.56 1.93 1.09 2.66.18.26.22.57-.01.76-.59.49-1.63 1.4-2.2 1.9h-.01zm-2.9-7c0 1.12.03 2.05-.54 3.05-.45.8-1.18 1.3-1.98 1.3-1.1 0-1.75-.84-1.75-2.08 0-2.44 2.2-2.88 4.27-2.88v.61zm-34.76 7a.6.6 0 0 1-.68.06c-.95-.79-1.12-1.15-1.65-1.9-1.57 1.6-2.69 2.08-4.73 2.08-2.42 0-4.3-1.5-4.3-4.47a4.87 4.87 0 0 1 3.06-4.69c1.56-.68 3.74-.8 5.4-1v-.36c0-.69.06-1.5-.35-2.08-.34-.53-1.02-.75-1.6-.75-1.1 0-2.08.56-2.32 1.72-.05.26-.24.52-.5.53l-2.78-.3c-.23-.05-.5-.24-.43-.6.64-3.37 3.7-4.4 6.43-4.4 1.4 0 3.22.38 4.32 1.44 1.4 1.3 1.27 3.04 1.27 4.93v4.47c0 1.34.55 1.93 1.08 2.66.18.26.22.57-.01.76-.59.49-1.63 1.4-2.2 1.9zm-2.9-7c0 1.12.03 2.05-.53 3.05-.46.8-1.18 1.3-2 1.3-1.1 0-1.74-.84-1.74-2.08 0-2.44 2.2-2.88 4.28-2.88v.61z"></path></g></svg>