<svg xmlns="http://www.w3.org/2000/svg" width="200" height="40" viewBox="0 0 200 40" class="UserLogo variant-- "><title>Lyft logo</title><g fill="none" fill-rule="evenodd"><path fill="var(--userLogoColor, #FF00BF)" fill-rule="nonzero" d="M75.18 3.6h7.71v20.74c0 3.3 1.49 5.25 2.7 6.07-1.26 1.1-5.08 2.08-7.95-.28-1.7-1.39-2.46-3.7-2.46-5.86V3.59zm48.15 17.25v-2.19h2.36v-7.64h-2.59A10.18 10.18 0 0 0 103 13.21v17.82a6.4 6.4 0 0 0 5.12-1.39c1.7-1.39 2.46-3.7 2.46-5.86v-.67h3.85v-7.64h-3.85v-2.31a2.59 2.59 0 1 1 5.18 0v7.66a10.2 10.2 0 0 0 10.17 10.2v-7.6a2.58 2.58 0 0 1-2.59-2.57zM94.17 11v11.23c0 .65-.54 1.16-1.18 1.16-.64 0-1.18-.51-1.18-1.16V11h-7.6v13.19c0 2.36.78 5.37 4.45 6.35 3.66.98 5.77-1.05 5.77-1.05-.2 1.33-1.44 2.31-3.46 2.52a10.5 10.5 0 0 1-4.46-.78v7c2.48.74 5.1.98 7.69.46 4.66-.9 7.6-4.8 7.6-10.03V10.95h-7.63V11z"></path></g></svg>