<svg xmlns="http://www.w3.org/2000/svg" width="200" height="40" viewBox="0 0 200 40" class="UserLogo variant-- "><title>Google logo</title><g fill="none" fill-rule="evenodd"><path fill="var(--userLogoColor, #EA4335)" fill-rule="nonzero" d="M92.6 21.65a8.28 8.28 0 0 1-8.41 8.38 8.28 8.28 0 0 1-8.4-8.38 8.25 8.25 0 0 1 8.4-8.38c4.63 0 8.4 3.52 8.4 8.38zm-3.69 0c0-3.02-2.19-5.08-4.72-5.08-2.54 0-4.73 2.06-4.73 5.08 0 2.98 2.19 5.07 4.73 5.07 2.53 0 4.72-2.1 4.72-5.07z"></path><path fill="var(--userLogoColor, #FBBC05)" fill-rule="nonzero" d="M110.73 21.65a8.28 8.28 0 0 1-8.41 8.38 8.28 8.28 0 0 1-8.4-8.38 8.26 8.26 0 0 1 8.4-8.38c4.63 0 8.4 3.52 8.4 8.38zm-3.68 0c0-3.02-2.2-5.08-4.73-5.08-2.54 0-4.73 2.06-4.73 5.08 0 2.98 2.2 5.07 4.73 5.07 2.54 0 4.73-2.1 4.73-5.07z"></path><path fill="var(--userLogoColor, #4285F4)" fill-rule="nonzero" d="M128.1 13.77v15.05c0 6.18-3.65 8.71-7.96 8.71a7.98 7.98 0 0 1-7.43-4.94l3.2-1.33a4.63 4.63 0 0 0 4.23 2.97c2.76 0 4.47-1.7 4.47-4.9v-1.21h-.13a5.7 5.7 0 0 1-4.41 1.9c-4.2 0-8.03-3.65-8.03-8.34 0-4.73 3.84-8.41 8.03-8.41 2 0 3.58.88 4.41 1.87h.13v-1.36h3.5zm-3.23 7.9c0-2.94-1.97-5.1-4.47-5.1-2.54 0-4.67 2.16-4.67 5.1 0 2.93 2.13 5.05 4.67 5.05 2.5 0 4.47-2.12 4.47-5.04z"></path><path fill="var(--userLogoColor, #34A853)" fill-rule="nonzero" d="M133.86 4.96V29.5h-3.59V4.96z"></path><path fill="var(--userLogoColor, #EA4335)" fill-rule="nonzero" d="M147.85 24.4l2.86 1.9a8.34 8.34 0 0 1-6.99 3.72 8.2 8.2 0 0 1-8.31-8.38c0-4.98 3.58-8.38 7.9-8.38 4.35 0 6.48 3.46 7.17 5.33l.38.96-11.2 4.63a4.26 4.26 0 0 0 4.06 2.54c1.88 0 3.18-.92 4.13-2.32zm-8.8-3.01l7.5-3.11c-.42-1.05-1.65-1.78-3.11-1.78a4.6 4.6 0 0 0-4.38 4.89z"></path><path fill="var(--userLogoColor, #4285F4)" fill-rule="nonzero" d="M62.2 19.47V15.9h11.98c.11.62.17 1.35.17 2.15 0 2.66-.73 5.96-3.08 8.31-2.28 2.38-5.2 3.65-9.07 3.65-7.17 0-13.2-5.84-13.2-13C49 9.83 55.03 4 62.2 4c3.97 0 6.8 1.56 8.92 3.59l-2.51 2.5a9.06 9.06 0 0 0-6.41-2.54 9.33 9.33 0 0 0-9.34 9.46c0 5.24 4.1 9.46 9.34 9.46a8.7 8.7 0 0 0 6.57-2.6c1-1.01 1.66-2.45 1.92-4.4h-8.5z"></path></g></svg>